<svg width="50" height="35" viewBox="0 0 50 35" fill="none" xmlns="http://www.w3.org/2000/svg">
<g filter="url(#filter0_d_19_23)">
<rect x="6.84625" y="6.93457" width="35" height="20" rx="2" fill="white"/>
</g>
<path d="M20.1618 16.2004L19.5595 16.3708C19.5217 16.2704 19.4658 16.1729 19.3919 16.0782C19.32 15.9816 19.2215 15.9021 19.0965 15.8396C18.9715 15.7771 18.8114 15.7458 18.6164 15.7458C18.3493 15.7458 18.1268 15.8074 17.9488 15.9305C17.7726 16.0517 17.6845 16.206 17.6845 16.3935C17.6845 16.5602 17.7452 16.6918 17.8664 16.7884C17.9876 16.885 18.177 16.9655 18.4345 17.0299L19.0823 17.189C19.4724 17.2837 19.7631 17.4286 19.9544 17.6237C20.1457 17.8168 20.2414 18.0659 20.2414 18.3708C20.2414 18.6208 20.1694 18.8443 20.0255 19.0413C19.8834 19.2382 19.6845 19.3935 19.4289 19.5072C19.1732 19.6208 18.8758 19.6776 18.5368 19.6776C18.0917 19.6776 17.7234 19.581 17.4317 19.3879C17.14 19.1947 16.9554 18.9125 16.8777 18.5413L17.5141 18.3822C17.5747 18.617 17.6893 18.7932 17.8578 18.9106C18.0283 19.028 18.2508 19.0867 18.5255 19.0867C18.838 19.0867 19.0861 19.0204 19.2698 18.8879C19.4554 18.7534 19.5482 18.5924 19.5482 18.4049C19.5482 18.2534 19.4952 18.1265 19.3891 18.0242C19.283 17.9201 19.1202 17.8424 18.9005 17.7913L18.1732 17.6208C17.7736 17.5261 17.48 17.3793 17.2925 17.1805C17.1069 16.9797 17.0141 16.7288 17.0141 16.4276C17.0141 16.1814 17.0832 15.9636 17.2215 15.7742C17.3616 15.5848 17.552 15.4362 17.7925 15.3282C18.0349 15.2203 18.3095 15.1663 18.6164 15.1663C19.0482 15.1663 19.3872 15.261 19.6334 15.4504C19.8815 15.6398 20.0577 15.8898 20.1618 16.2004ZM21.9211 16.9617V19.5867H21.2506V13.7685H21.9211V15.9049H21.9779C22.0801 15.6795 22.2336 15.5006 22.4381 15.368C22.6445 15.2335 22.9192 15.1663 23.262 15.1663C23.5593 15.1663 23.8197 15.2259 24.0432 15.3453C24.2667 15.4627 24.44 15.6435 24.5631 15.8879C24.6881 16.1303 24.7506 16.439 24.7506 16.814V19.5867H24.0801V16.8595C24.0801 16.5129 23.9902 16.2449 23.8103 16.0555C23.6322 15.8642 23.3851 15.7685 23.0688 15.7685C22.8491 15.7685 22.6521 15.815 22.4779 15.9078C22.3055 16.0006 22.1692 16.136 22.0688 16.314C21.9703 16.492 21.9211 16.7079 21.9211 16.9617ZM25.9772 19.5867V15.2231H26.6476V19.5867H25.9772ZM26.3181 14.4958C26.1874 14.4958 26.0747 14.4513 25.98 14.3623C25.8872 14.2733 25.8408 14.1663 25.8408 14.0413C25.8408 13.9163 25.8872 13.8093 25.98 13.7203C26.0747 13.6312 26.1874 13.5867 26.3181 13.5867C26.4488 13.5867 26.5605 13.6312 26.6533 13.7203C26.748 13.8093 26.7953 13.9163 26.7953 14.0413C26.7953 14.1663 26.748 14.2733 26.6533 14.3623C26.5605 14.4513 26.4488 14.4958 26.3181 14.4958ZM29.8188 15.2231V15.7913H27.4665V15.2231H29.8188ZM28.1711 19.5867V14.6208C28.1711 14.3708 28.2298 14.1625 28.3472 13.9958C28.4646 13.8292 28.6171 13.7042 28.8046 13.6208C28.9921 13.5375 29.19 13.4958 29.3983 13.4958C29.5631 13.4958 29.6976 13.5091 29.8017 13.5356C29.9059 13.5621 29.9836 13.5867 30.0347 13.6095L29.8415 14.189C29.8074 14.1776 29.7601 14.1634 29.6995 14.1464C29.6408 14.1293 29.5631 14.1208 29.4665 14.1208C29.2449 14.1208 29.0849 14.1767 28.9864 14.2884C28.8898 14.4002 28.8415 14.564 28.8415 14.7799V19.5867H28.1711ZM32.6561 15.2231V15.7913H30.3948V15.2231H32.6561ZM31.0539 14.1776H31.7243V18.3367C31.7243 18.5261 31.7518 18.6682 31.8067 18.7629C31.8635 18.8557 31.9355 18.9182 32.0226 18.9504C32.1116 18.9807 32.2054 18.9958 32.3039 18.9958C32.3777 18.9958 32.4383 18.992 32.4857 18.9845C32.533 18.975 32.5709 18.9674 32.5993 18.9617L32.7357 19.564C32.6902 19.581 32.6268 19.5981 32.5453 19.6151C32.4639 19.6341 32.3607 19.6435 32.2357 19.6435C32.0463 19.6435 31.8607 19.6028 31.6789 19.5214C31.4989 19.44 31.3493 19.3159 31.23 19.1492C31.1126 18.9826 31.0539 18.7723 31.0539 18.5185V14.1776Z" fill="black"/>
<defs>
<filter id="filter0_d_19_23" x="0.846252" y="0.93457" width="49" height="34" filterUnits="userSpaceOnUse" color-interpolation-filters="sRGB">
<feFlood flood-opacity="0" result="BackgroundImageFix"/>
<feColorMatrix in="SourceAlpha" type="matrix" values="0 0 0 0 0 0 0 0 0 0 0 0 0 0 0 0 0 0 127 0" result="hardAlpha"/>
<feOffset dx="1" dy="1"/>
<feGaussianBlur stdDeviation="3.5"/>
<feComposite in2="hardAlpha" operator="out"/>
<feColorMatrix type="matrix" values="0 0 0 0 1 0 0 0 0 1 0 0 0 0 1 0 0 0 0.46 0"/>
<feBlend mode="normal" in2="BackgroundImageFix" result="effect1_dropShadow_19_23"/>
<feBlend mode="normal" in="SourceGraphic" in2="effect1_dropShadow_19_23" result="shape"/>
</filter>
</defs>
</svg>
