<svg width="36" height="36" viewBox="0 0 36 36" fill="none" xmlns="http://www.w3.org/2000/svg">
<rect x="0.218933" y="0.973755" width="35" height="35" rx="8" fill="url(#paint0_linear_17_10)"/>
<path d="M13.2953 5.30862C13.9223 4.37915 15.184 4.1339 16.1134 4.76083L25.8546 11.3313C26.7841 11.9583 27.0293 13.22 26.4024 14.1495V14.1495L13.2953 5.30862V5.30862Z" fill="url(#paint1_linear_17_10)"/>
<path d="M12.2953 13.3086C12.9223 12.3792 14.184 12.1339 15.1134 12.7608L24.8546 19.3313C25.7841 19.9583 26.0293 21.22 25.4024 22.1495V22.1495L12.2953 13.3086V13.3086Z" fill="url(#paint2_linear_17_10)"/>
<path d="M21.5376 22.4668C20.9106 23.3962 19.6489 23.6415 18.7195 23.0146L8.97827 16.444C8.0488 15.8171 7.80355 14.5554 8.43048 13.6259V13.6259L21.5376 22.4668V22.4668Z" fill="url(#paint3_linear_17_10)"/>
<path d="M21.5376 30.4668C20.9106 31.3962 19.6489 31.6415 18.7195 31.0146L8.97827 24.444C8.0488 23.8171 7.80355 22.5554 8.43048 21.6259V21.6259L21.5376 30.4668V30.4668Z" fill="url(#paint4_linear_17_10)"/>
<defs>
<linearGradient id="paint0_linear_17_10" x1="3.44018" y1="3.87207" x2="32.2655" y2="34.393" gradientUnits="userSpaceOnUse">
<stop stop-color="#2A3F8E"/>
<stop offset="1" stop-color="#08133D"/>
</linearGradient>
<linearGradient id="paint1_linear_17_10" x1="13.2954" y1="3.62567" x2="27.5375" y2="14.1495" gradientUnits="userSpaceOnUse">
<stop stop-color="#F42C8C"/>
<stop offset="1" stop-color="#FF48D7"/>
</linearGradient>
<linearGradient id="paint2_linear_17_10" x1="12.2954" y1="11.6257" x2="26.5375" y2="22.1495" gradientUnits="userSpaceOnUse">
<stop stop-color="#2CD0F4"/>
<stop offset="1" stop-color="#2570E1"/>
</linearGradient>
<linearGradient id="paint3_linear_17_10" x1="21.5375" y1="24.1497" x2="7.29535" y2="13.6259" gradientUnits="userSpaceOnUse">
<stop stop-color="#F42CB0"/>
<stop offset="1" stop-color="#FA9A63"/>
</linearGradient>
<linearGradient id="paint4_linear_17_10" x1="21.5375" y1="32.1497" x2="7.29535" y2="21.6259" gradientUnits="userSpaceOnUse">
<stop stop-color="#2CD0F4"/>
<stop offset="1" stop-color="#25E1B4"/>
</linearGradient>
</defs>
</svg>
