<svg width="35" height="35" viewBox="0 0 35 35" fill="none" xmlns="http://www.w3.org/2000/svg">
<g filter="url(#filter0_d_19_26)">
<rect x="6.41071" y="6.58673" width="20" height="20" rx="2" fill="white"/>
</g>
<path d="M16.7784 14.6754V15.2435H14.517V14.6754H16.7784ZM15.1761 13.6299H15.8466V17.789C15.8466 17.9784 15.874 18.1204 15.929 18.2151C15.9858 18.3079 16.0577 18.3704 16.1449 18.4026C16.2339 18.4329 16.3276 18.4481 16.4261 18.4481C16.5 18.4481 16.5606 18.4443 16.6079 18.4367C16.6553 18.4273 16.6932 18.4197 16.7216 18.414L16.8579 19.0163C16.8125 19.0333 16.749 19.0504 16.6676 19.0674C16.5862 19.0863 16.4829 19.0958 16.3579 19.0958C16.1685 19.0958 15.9829 19.0551 15.8011 18.9737C15.6212 18.8922 15.4716 18.7682 15.3523 18.6015C15.2348 18.4348 15.1761 18.2246 15.1761 17.9708V13.6299Z" fill="black"/>
<defs>
<filter id="filter0_d_19_26" x="0.410706" y="0.586731" width="34" height="34" filterUnits="userSpaceOnUse" color-interpolation-filters="sRGB">
<feFlood flood-opacity="0" result="BackgroundImageFix"/>
<feColorMatrix in="SourceAlpha" type="matrix" values="0 0 0 0 0 0 0 0 0 0 0 0 0 0 0 0 0 0 127 0" result="hardAlpha"/>
<feOffset dx="1" dy="1"/>
<feGaussianBlur stdDeviation="3.5"/>
<feComposite in2="hardAlpha" operator="out"/>
<feColorMatrix type="matrix" values="0 0 0 0 1 0 0 0 0 1 0 0 0 0 1 0 0 0 0.46 0"/>
<feBlend mode="normal" in2="BackgroundImageFix" result="effect1_dropShadow_19_26"/>
<feBlend mode="normal" in="SourceGraphic" in2="effect1_dropShadow_19_26" result="shape"/>
</filter>
</defs>
</svg>
